<?xml version="1.0" encoding="UTF-8"?>
<svg width="55px" height="53px" viewBox="0 0 55 53" version="1.1" xmlns="http://www.w3.org/2000/svg" xmlns:xlink="http://www.w3.org/1999/xlink">
    <title>Map Icon</title>
    <g id="Page-1" stroke="none" stroke-width="1" fill="none" fill-rule="evenodd">
        <g id="List" transform="translate(-134.000000, -1220.000000)">
            <g id="Tabs" transform="translate(0.000000, 1206.000000)">
                <rect id="Rectangle" fill="#FFFFFF" x="0" y="0" width="750" height="128"></rect>
                <g id="Map-Icon" transform="translate(134.000000, 14.000000)" stroke="#757575">
                    <path d="M34.7792084,3.27197534 C35.217173,3.00753024 35.7597172,2.98454319 36.2184806,3.21099485 L36.2184806,3.21099485 L51.6639391,10.8350774 C51.919916,10.961431 52.1289313,11.1549641 52.2739523,11.3882747 C52.4189732,11.6215853 52.5,11.8946733 52.5,12.1801369 L52.5,12.1801369 L52.5,45.9762966 C52.5,46.3905102 52.3321068,46.7655102 52.0606602,47.0369568 C51.7892136,47.3084034 51.4142136,47.4762966 51,47.4762966 C50.7271445,47.4762966 50.4594569,47.4018713 50.2257584,47.2610339 L50.2257584,47.2610339 L38.9398507,40.4596285 C37.8144877,39.7814332 36.540299,39.4754021 35.2830483,39.5338316 C34.0257976,39.5922611 32.7854848,40.0151512 31.7278736,40.7947982 L31.7278736,40.7947982 L19.9913453,49.4467001 C19.7456197,49.6278434 19.4572569,49.72548 19.1652582,49.7379448 C18.8732596,49.7504097 18.5776251,49.6777028 18.3173563,49.5181594 L18.3173563,49.5181594 L3.21607182,40.2611512 C2.77118758,39.9884395 2.5,39.5041191 2.5,38.9823014 L2.5,38.9823014 L2.5,6.48423961 C2.5,6.07002605 2.66789322,5.69502605 2.93933983,5.42357944 C3.21078644,5.15213283 3.58578644,4.98423961 4,4.98423961 C4.23371422,4.98423961 4.4641951,5.03885204 4.67306056,5.14372125 L4.67306056,5.14372125 L16.2124587,10.9375351 C18.2077415,11.9393462 20.5775548,11.8470019 22.4888309,10.6929642 L22.4888309,10.6929642 Z" id="Rectangle" stroke-width="5" fill="#FFFFFF"></path>
                    <line x1="19" y1="15.4431634" x2="19" y2="46.4431634" id="Line" stroke-width="2" stroke-linecap="square"></line>
                    <line x1="35.5" y1="5.44316341" x2="35.5" y2="36.4431634" id="Line" stroke-width="2" stroke-linecap="square"></line>
                </g>
            </g>
        </g>
    </g>
</svg>