<?xml version="1.0" encoding="UTF-8"?>
<svg width="51px" height="50px" viewBox="0 0 51 50" version="1.1" xmlns="http://www.w3.org/2000/svg" xmlns:xlink="http://www.w3.org/1999/xlink">
    <title>Stat Icon 2</title>
    <g id="Page-1" stroke="none" stroke-width="1" fill="none" fill-rule="evenodd">
        <g id="Home---Map" transform="translate(-553.000000, -1222.000000)">
            <g id="Tabs" transform="translate(0.000000, 1206.000000)">
                <rect id="Rectangle" fill="#FFFFFF" x="0" y="0" width="750" height="128"></rect>
                <g id="Stat-Icon-2" transform="translate(553.000000, 16.000000)" fill="#757575">
                    <rect id="Rectangle" x="1" y="44" width="50" height="6" rx="3"></rect>
                    <path d="M23.6977536,22.1644188 C24.4120054,22.8030754 24.4732875,23.8998243 23.8346309,24.6140762 C23.8319639,24.6170588 23.8292866,24.6200323 23.826599,24.6229964 L13.7778939,35.7058412 C13.1285333,36.4220292 12.0229102,36.4799711 11.3022464,35.8355812 C10.5879946,35.1969246 10.5267125,34.1001757 11.1653691,33.3859238 C11.1680361,33.3829412 11.1707134,33.3799677 11.173401,33.3770036 L21.2221061,22.2941588 C21.8714667,21.5779708 22.9770898,21.5200289 23.6977536,22.1644188 Z" id="Rectangle"></path>
                    <path d="M45.7676008,10.1966783 C46.4626864,10.8716171 46.5199966,11.9682609 45.8990491,12.711975 L32.5657493,28.6813817 C32.001694,29.3569556 30.996776,29.4473593 30.3212022,28.8833039 C30.2906115,28.8577629 30.2609897,28.8310834 30.2323992,28.8033217 C29.5373136,28.1283829 29.4800034,27.0317391 30.1009509,26.288025 L43.4342507,10.3186183 C43.998306,9.64304439 45.003224,9.55264075 45.6787978,10.1166961 C45.7093885,10.1422371 45.7390103,10.1689166 45.7676008,10.1966783 Z" id="Rectangle"></path>
                    <path d="M32.3035738,28.3994754 C31.9520578,29.2073286 31.0122034,29.5772629 30.2043502,29.2257468 C30.1605123,29.2066719 30.117554,29.1856359 30.0756055,29.1627026 L22.5315421,25.0383466 C21.664321,24.5642349 21.3020815,23.5068063 21.6964262,22.6005246 C22.0479422,21.7926714 22.9877966,21.4227371 23.7956498,21.7742532 C23.8394877,21.7933281 23.882446,21.8143641 23.9243945,21.8372974 L31.4684579,25.9616534 C32.335679,26.4357651 32.6979185,27.4931937 32.3035738,28.3994754 Z" id="Rectangle"></path>
                    <path d="M-19,22 L25,22 C26.6568542,22 28,23.3431458 28,25 C28,26.6568542 26.6568542,28 25,28 L-19,28 C-20.6568542,28 -22,26.6568542 -22,25 C-22,23.3431458 -20.6568542,22 -19,22 Z" id="Rectangle" transform="translate(3.000000, 25.000000) rotate(-90.000000) translate(-3.000000, -25.000000) "></path>
                </g>
            </g>
        </g>
    </g>
</svg>